HIERARCHY
ROOT hip
{
  OFFSET 0 0 0
  CHANNELS 6 Xposition Yposition Zposition Zrotation Yrotation Xrotation
  JOINT abdomen
  {
    OFFSET 0 20.6881 -0.73152
    CHANNELS 3 Zrotation Xrotation Yrotation
    JOINT chest
    {
      OFFSET 0 11.7043 -0.48768
      CHANNELS 3 Zrotation Xrotation Yrotation
      JOINT neck
      {
        OFFSET 0 22.1894 -2.19456
        CHANNELS 3 Zrotation Xrotation Yrotation
        JOINT head
        {
          OFFSET -0.24384 7.07133 1.2192
          CHANNELS 3 Zrotation Xrotation Yrotation
          JOINT leftEye
          {
            OFFSET 4.14528 8.04674 8.04672
            CHANNELS 3 Zrotation Xrotation Yrotation
            End Site
            {
              OFFSET 1 0 0
            }
          }
          JOINT rightEye
          {
            OFFSET -3.6576 8.04674 8.04672
            CHANNELS 3 Zrotation Xrotation Yrotation
            End Site
            {
              OFFSET 1 0 0
            }
          }
        }
      }
      JOINT rCollar
      {
        OFFSET -2.68224 19.2634 -4.8768
        CHANNELS 3 Zrotation Xrotation Yrotation
        JOINT rShldr
        {
          OFFSET -8.77824 -1.95073 1.46304
          CHANNELS 3 Zrotation Xrotation Yrotation
          JOINT rForeArm
          {
            OFFSET -28.1742 -1.7115 0.48768
            CHANNELS 3 Zrotation Xrotation Yrotation
            JOINT rHand
            {
              OFFSET -22.5879 0.773209 7.07136
              CHANNELS 3 Zrotation Xrotation Yrotation
              JOINT rThumb1
              {
                OFFSET -1.2192 -0.487915 3.41376
                CHANNELS 3 Zrotation Xrotation Yrotation
                JOINT rThumb2
                {
                  OFFSET -3.37035 -0.52449 3.41376
                  CHANNELS 3 Zrotation Xrotation Yrotation
                  End Site
                  {
                    OFFSET -1.78271 -1.18214 1.43049
                  }
                }
              }
              JOINT rIndex1
              {
                OFFSET -7.75947 0.938293 5.60832
                CHANNELS 3 Zrotation Xrotation Yrotation
                JOINT rIndex2
                {
                  OFFSET -2.54057 -0.884171 1.56538
                  CHANNELS 3 Zrotation Xrotation Yrotation
                  End Site
                  {
                    OFFSET -1.62519 -0.234802 1.16502
                  }
                }
              }
              JOINT rMid1
              {
                OFFSET -8.24714 1.18213 3.41376
                CHANNELS 3 Zrotation Xrotation Yrotation
                JOINT rMid2
                {
                  OFFSET -3.10165 -0.590103 1.0647
                  CHANNELS 3 Zrotation Xrotation Yrotation
                  End Site
                  {
                    OFFSET -2.48547 -0.328903 0.83742
                  }
                }
              }
              JOINT rRing1
              {
                OFFSET -8.82822 0.546677 1.51678
                CHANNELS 3 Zrotation Xrotation Yrotation
                JOINT rRing2
                {
                  OFFSET -2.60934 -0.819778 -0.0198488
                  CHANNELS 3 Zrotation Xrotation Yrotation
                  End Site
                  {
                    OFFSET -2.33842 -0.294052 0.168128
                  }
                }
              }
              JOINT rPinky1
              {
                OFFSET -8.27202 -0.0477905 -0.4584
                CHANNELS 3 Zrotation Xrotation Yrotation
                JOINT rPinky2
                {
                  OFFSET -1.82734 -0.647385 -0.700984
                  CHANNELS 3 Zrotation Xrotation Yrotation
                  End Site
                  {
                    OFFSET -1.69225 -0.51767 -0.607171
                  }
                }
              }
            }
          }
        }
      }
      JOINT lCollar
      {
        OFFSET 2.68224 19.2634 -4.8768
        CHANNELS 3 Zrotation Xrotation Yrotation
        JOINT lShldr
        {
          OFFSET 8.77824 -1.95073 1.46304
          CHANNELS 3 Zrotation Xrotation Yrotation
          JOINT lForeArm
          {
            OFFSET 28.1742 -1.7115 0.48768
            CHANNELS 3 Zrotation Xrotation Yrotation
            JOINT lHand
            {
              OFFSET 22.5879 0.773209 7.07136
              CHANNELS 3 Zrotation Xrotation Yrotation
              JOINT lThumb1
              {
                OFFSET 1.2192 -0.487915 3.41376
                CHANNELS 3 Zrotation Xrotation Yrotation
                JOINT lThumb2
                {
                  OFFSET 3.37035 -0.52449 3.41376
                  CHANNELS 3 Zrotation Xrotation Yrotation
                  End Site
                  {
                    OFFSET 1.78271 -1.18214 1.43049
                  }
                }
              }
              JOINT lIndex1
              {
                OFFSET 7.75947 0.938293 5.60832
                CHANNELS 3 Zrotation Xrotation Yrotation
                JOINT lIndex2
                {
                  OFFSET 2.54057 -0.884171 1.56538
                  CHANNELS 3 Zrotation Xrotation Yrotation
                  End Site
                  {
                    OFFSET 1.62519 -0.234802 1.16502
                  }
                }
              }
              JOINT lMid1
              {
                OFFSET 8.24714 1.18213 3.41376
                CHANNELS 3 Zrotation Xrotation Yrotation
                JOINT lMid2
                {
                  OFFSET 3.10165 -0.590103 1.0647
                  CHANNELS 3 Zrotation Xrotation Yrotation
                  End Site
                  {
                    OFFSET 2.48547 -0.328903 0.83742
                  }
                }
              }
              JOINT lRing1
              {
                OFFSET 8.82822 0.546677 1.51678
                CHANNELS 3 Zrotation Xrotation Yrotation
                JOINT lRing2
                {
                  OFFSET 2.60934 -0.819778 -0.0198488
                  CHANNELS 3 Zrotation Xrotation Yrotation
                  End Site
                  {
                    OFFSET 2.33842 -0.294052 0.168128
                  }
                }
              }
              JOINT lPinky1
              {
                OFFSET 8.27202 -0.0477905 -0.4584
                CHANNELS 3 Zrotation Xrotation Yrotation
                JOINT lPinky2
                {
                  OFFSET 1.82734 -0.647385 -0.700984
                  CHANNELS 3 Zrotation Xrotation Yrotation
                  End Site
                  {
                    OFFSET 1.69225 -0.51767 -0.607171
                  }
                }
              }
            }
          }
        }
      }
    }
  }
  JOINT rButtock
  {
    OFFSET -8.77824 4.35084 1.2192
    CHANNELS 3 Zrotation Xrotation Yrotation
    JOINT rThigh
    {
      OFFSET 0 -1.70687 -2.19456
      CHANNELS 3 Zrotation Xrotation Yrotation
      JOINT rShin
      {
        OFFSET 0 -36.8199 0.73152
        CHANNELS 3 Zrotation Xrotation Yrotation
        JOINT rFoot
        {
          OFFSET 0.73152 -45.1104 -5.12064
          CHANNELS 3 Zrotation Xrotation Yrotation
          End Site
          {
            OFFSET -1.1221 -3.69964 12.103
          }
        }
      }
    }
  }
  JOINT lButtock
  {
    OFFSET 8.77824 4.35084 1.2192
    CHANNELS 3 Zrotation Xrotation Yrotation
    JOINT lThigh
    {
      OFFSET 0 -1.70687 -2.19456
      CHANNELS 3 Zrotation Xrotation Yrotation
      JOINT lShin
      {
        OFFSET 0 -36.8199 0.73152
        CHANNELS 3 Zrotation Xrotation Yrotation
        JOINT lFoot
        {
          OFFSET -0.73152 -45.1104 -5.12064
          CHANNELS 3 Zrotation Xrotation Yrotation
          End Site
          {
            OFFSET 1.1221 -3.69964 12.103
          }
        }
      }
    }
  }
}
MOTION
Frames:	7
Frame Time:	0.00833333
22.3872 75.1089 85.2355 3.6905 -4.4789 26.6235 -10.1661 -31.6268 5.97831 -0.443634 -8.93638 2.40234 -1.23999 -3.60861 -1.70875 5.88529 19.5917 -3.88815 -0.0 0.0 0.0 -0.0 0.0 0.0 1.17058e-13 -2.38152e-13 -5.85172e-15 169.343 39.878 -108.085 -27.4581 -28.0103 64.0807 -0.688957 22.8908 3.40194 -3.23641e-09 1.38745e-10 8.94374e-10 -5.57811e-09 2.24499e-10 1.5971e-09 -3.23641e-09 1.38744e-10 8.94364e-10 7.73091 5.47488 0.417314 -3.23641e-09 1.38741e-10 8.9437e-10 2.90554 0.965183 0.102902 -3.23641e-09 1.38741e-10 8.94369e-10 10.2786 0.731801 0.0259123 -3.23642e-09 1.38742e-10 8.94385e-10 2.22167 -0.733487 -0.20892 1.16925e-13 -2.38162e-13 -6.04274e-15 -175.972 50.7775 131.736 28.4205 -36.506 -77.8598 0.274821 14.7604 -2.12204 1.52096e-09 -4.3693e-11 -9.4949e-10 2.6166e-09 -8.25068e-11 -1.65395e-09 1.52095e-09 -4.36962e-11 -9.49495e-10 -7.73091 5.47488 -0.417314 1.52096e-09 -4.36952e-11 -9.4949e-10 -2.90554 0.965183 -0.102902 1.52095e-09 -4.36945e-11 -9.49491e-10 -10.2786 0.731801 -0.0259123 1.52096e-09 -4.36938e-11 -9.495e-10 -2.22167 -0.733487 0.20892 -2.03217e-16 0.0 -3.88251e-19 -0.782989 -19.004 11.6014 -0.0763912 33.3454 1.49899 -16.3906 -30.8273 -25.1938 2.03217e-16 0.0 3.88251e-19 -4.02508 -71.6007 1.89574 0.508144 45.8686 -0.667055 0.329264 -2.27345 -0.539482
22.3722 75.0922 85.1824 3.6883 -4.6209 26.5803 -10.1216 -31.5899 6.04561 -0.470351 -8.9391 2.41303 -1.17378 -3.56152 -1.67408 5.81462 19.7474 -3.83745 -0.0 0.0 0.0 -0.0 0.0 0.0 1.08928e-13 -1.30295e-13 -6.04305e-14 169.627 39.9134 -108.211 -27.4509 -27.9813 64.0346 -0.687318 22.8654 3.39773 -3.12659e-09 -3.06932e-11 9.25655e-10 -5.38766e-09 -6.90397e-11 1.65092e-09 -3.12659e-09 -3.0694e-11 9.25644e-10 7.73091 5.47488 0.417314 -3.12659e-09 -3.06958e-11 9.25651e-10 2.90554 0.965183 0.102902 -3.12659e-09 -3.06959e-11 9.2565e-10 10.2786 0.731801 0.0259123 -3.1266e-09 -3.0695e-11 9.25664e-10 2.22167 -0.733487 -0.20892 1.08798e-13 -1.30313e-13 -6.06045e-14 -175.626 50.8029 131.408 28.4201 -36.518 -77.8799 0.282428 14.9582 -2.15182 1.13024e-09 -9.46396e-11 -9.80169e-10 1.94268e-09 -1.67487e-10 -1.70476e-09 1.13023e-09 -9.46418e-11 -9.80172e-10 -7.73091 5.47488 -0.417314 1.13024e-09 -9.46396e-11 -9.8017e-10 -2.90554 0.965183 -0.102902 1.13023e-09 -9.46392e-11 -9.80171e-10 -10.2786 0.731801 -0.0259123 1.13024e-09 -9.46382e-11 -9.80179e-10 -2.22167 -0.733487 0.20892 -2.03217e-16 0.0 -3.88251e-19 -0.762652 -19.0644 11.7636 -0.0771923 33.4439 1.50426 -16.4511 -30.8693 -25.2557 2.03217e-16 0.0 3.88251e-19 -3.86072 -71.6279 2.03823 0.510124 45.9191 -0.665624 0.344867 -2.16124 -0.440641
22.355 75.077 85.1339 3.6687 -4.7472 26.5247 -10.0487 -31.541 6.11225 -0.509057 -8.94 2.42008 -1.09981 -3.50712 -1.63527 5.73861 19.8678 -3.77843 -0.0 0.0 0.0 -0.0 0.0 0.0 9.69571e-14 -3.20297e-14 -1.15357e-13 169.904 39.9575 -108.334 -27.4449 -27.957 63.9959 -0.686234 22.8486 3.39495 -2.96432e-09 -1.98429e-10 9.02082e-10 -5.10732e-09 -3.59573e-10 1.60913e-09 -2.96432e-09 -1.98428e-10 9.02072e-10 7.73091 5.47488 0.417314 -2.96432e-09 -1.98429e-10 9.02078e-10 2.90554 0.965183 0.102902 -2.96432e-09 -1.9843e-10 9.02079e-10 10.2786 0.731801 0.0259123 -2.96432e-09 -1.98429e-10 9.02089e-10 2.22167 -0.733487 -0.20892 9.68334e-14 -3.20541e-14 -1.15514e-13 -175.236 50.8282 131.052 28.4198 -36.5284 -77.8975 0.29036 15.1597 -2.18222 6.59292e-10 -7.19922e-11 -9.59324e-10 1.1307e-09 -1.24387e-10 -1.66546e-09 6.59285e-10 -7.19932e-11 -9.59323e-10 -7.73091 5.47488 -0.417314 6.59293e-10 -7.19901e-11 -9.59324e-10 -2.90554 0.965183 -0.102902 6.59283e-10 -7.19899e-11 -9.59327e-10 -10.2786 0.731801 -0.0259123 6.59296e-10 -7.19885e-11 -9.59334e-10 -2.22167 -0.733487 0.20892 -2.03217e-16 0.0 -3.88251e-19 -0.728469 -19.115 11.9161 -0.0780749 33.5427 1.50885 -16.4874 -30.8938 -25.2916 2.03217e-16 0.0 3.88251e-19 -3.6818 -71.6414 2.1779 0.511984 45.968 -0.664602 0.36077 -2.04441 -0.338393
22.335 75.0636 85.092 3.6363 -4.8543 26.4529 -9.96492 -31.4771 6.16238 -0.556914 -8.9356 2.42082 -1.0221 -3.44307 -1.59468 5.66631 19.9409 -3.71545 -0.0 0.0 0.0 -0.0 0.0 0.0 8.11612e-14 2.70483e-14 -1.44616e-13 170.137 40.0157 -108.437 -27.4415 -27.9437 63.9748 -0.685495 22.8372 3.39305 -2.69888e-09 -2.93436e-10 7.8714e-10 -4.6502e-09 -5.23554e-10 1.40713e-09 -2.69887e-09 -2.93436e-10 7.8713e-10 7.73091 5.47488 0.417314 -2.69888e-09 -2.93436e-10 7.87136e-10 2.90554 0.965183 0.102902 -2.69887e-09 -2.93436e-10 7.87138e-10 10.2786 0.731801 0.0259123 -2.69888e-09 -2.93436e-10 7.87146e-10 2.22167 -0.733487 -0.20892 8.10526e-14 2.70207e-14 -1.44765e-13 -174.843 50.8516 130.709 28.4193 -36.5421 -77.9206 0.297266 15.3319 -2.20825 1.90025e-10 5.31836e-11 -8.39437e-10 3.22022e-10 9.62468e-11 -1.45405e-09 1.90019e-10 5.31836e-11 -8.39434e-10 -7.73091 5.47488 -0.417314 1.90027e-10 5.3187e-11 -8.39437e-10 -2.90554 0.965183 -0.102902 1.90018e-10 5.31871e-11 -8.39441e-10 -10.2786 0.731801 -0.0259123 1.90031e-10 5.31892e-11 -8.39447e-10 -2.22167 -0.733487 0.20892 -2.03217e-16 0.0 -3.88251e-19 -0.683511 -19.1409 12.0436 -0.0787994 33.6307 1.51331 -16.5238 -30.9053 -25.3344 2.03217e-16 0.0 3.88251e-19 -3.52588 -71.6355 2.28539 0.513597 46.0122 -0.66409 0.375376 -1.92405 -0.242144
22.3133 75.0521 85.0575 3.599 -4.9378 26.3638 -9.86491 -31.3919 6.19532 -0.616462 -8.92674 2.41426 -0.941102 -3.3712 -1.55187 5.60307 19.9621 -3.64825 -0.0 0.0 0.0 -0.0 0.0 0.0 5.8487e-14 2.02764e-14 -1.39434e-13 170.327 40.0889 -108.519 -27.4413 -27.9429 63.9737 -0.685121 22.8313 3.39208 -2.33573e-09 -2.88038e-10 5.22782e-10 -4.02655e-09 -5.13228e-10 9.4444e-10 -2.33572e-09 -2.88038e-10 5.22774e-10 7.73091 5.47488 0.417314 -2.33573e-09 -2.88037e-10 5.2278e-10 2.90554 0.965183 0.102902 -2.33572e-09 -2.88038e-10 5.22782e-10 10.2786 0.731801 0.0259123 -2.33573e-09 -2.88037e-10 5.22789e-10 2.22167 -0.733487 -0.20892 5.84117e-14 2.02507e-14 -1.39591e-13 -174.443 50.8724 130.379 28.4188 -36.5599 -77.9506 0.302756 15.4678 -2.22882 -3.19096e-10 3.8201e-10 -5.58155e-10 -5.54729e-10 6.70016e-10 -9.61689e-10 -3.19104e-10 3.82011e-10 -5.5815e-10 -7.73091 5.47488 -0.417314 -3.19094e-10 3.82014e-10 -5.58154e-10 -2.90554 0.965183 -0.102902 -3.19102e-10 3.82014e-10 -5.58158e-10 -10.2786 0.731801 -0.0259123 -3.1909e-10 3.82017e-10 -5.58163e-10 -2.22167 -0.733487 0.20892 -2.03217e-16 0.0 -3.88251e-19 -0.622275 -19.1391 12.1406 -0.079417 33.708 1.51774 -16.5604 -30.8999 -25.3863 2.03217e-16 0.0 3.88251e-19 -3.38593 -71.6071 2.3643 0.514956 46.0529 -0.664274 0.38864 -1.8016 -0.151944
22.2908 75.0426 85.0302 3.5598 -4.9976 26.2601 -9.74256 -31.2889 6.21836 -0.68811 -8.91469 2.40193 -0.85494 -3.29195 -1.50594 5.54335 19.9381 -3.57505 -0.0 0.0 0.0 -0.0 0.0 0.0 2.99448e-14 -3.03044e-14 -1.14298e-13 170.491 40.1748 -108.589 -27.4434 -27.9515 63.9874 -0.685195 22.8325 3.39227 -1.89559e-09 -2.23027e-10 1.44587e-10 -3.27158e-09 -3.99422e-10 2.83259e-10 -1.89559e-09 -2.23027e-10 1.44582e-10 7.73091 5.47488 0.417314 -1.89559e-09 -2.23026e-10 1.44587e-10 2.90554 0.965183 0.102902 -1.89559e-09 -2.23027e-10 1.44589e-10 10.2786 0.731801 0.0259123 -1.89559e-09 -2.23026e-10 1.44596e-10 2.22167 -0.733487 -0.20892 2.99163e-14 -3.03248e-14 -1.14472e-13 -174.018 50.8914 130.043 28.4182 -36.5795 -77.9837 0.307478 15.5845 -2.24649 -8.90626e-10 8.67921e-10 -1.5738e-10 -1.5386e-09 1.51641e-09 -2.61104e-10 -8.90636e-10 8.67923e-10 -1.57375e-10 -7.73091 5.47488 -0.417314 -8.90624e-10 8.67923e-10 -1.57378e-10 -2.90554 0.965183 -0.102902 -8.90632e-10 8.67924e-10 -1.57382e-10 -10.2786 0.731801 -0.0259123 -8.9062e-10 8.67929e-10 -1.57386e-10 -2.22167 -0.733487 0.20892 -2.03217e-16 0.0 -3.88251e-19 -0.545491 -19.1174 12.2156 -0.0800109 33.7797 1.52185 -16.5863 -30.8771 -25.4318 2.03217e-16 0.0 3.88251e-19 -3.24803 -71.5599 2.42605 0.516125 46.091 -0.665048 0.401281 -1.67609 -0.0635928
22.2675 75.035 85.0016 3.5159 -5.0476 26.1638 -9.61468 -31.1798 6.22766 -0.765827 -8.89663 2.38488 -0.764076 -3.20087 -1.45855 5.47988 19.8746 -3.49797 -0.0 0.0 0.0 -0.0 0.0 0.0 1.64766e-15 -8.12336e-14 -7.80816e-14 170.614 40.273 -108.642 -27.4476 -27.9683 64.0141 -0.68561 22.8389 3.39334 -1.35063e-09 -1.30084e-10 -2.43526e-10 -2.33578e-09 -2.36465e-10 -3.96962e-10 -1.35062e-09 -1.30084e-10 -2.43529e-10 7.73091 5.47488 0.417314 -1.35063e-09 -1.30083e-10 -2.43524e-10 2.90554 0.965183 0.102902 -1.35062e-09 -1.30084e-10 -2.43523e-10 10.2786 0.731801 0.0259123 -1.35063e-09 -1.30082e-10 -2.43515e-10 2.22167 -0.733487 -0.20892 1.66044e-15 -8.12477e-14 -7.82726e-14 -173.593 50.9101 129.716 28.4175 -36.6006 -78.0193 0.31155 15.6846 -2.26167 -1.4142e-09 1.31832e-09 2.54018e-10 -2.43968e-09 2.3007e-09 4.57371e-10 -1.41421e-09 1.31832e-09 2.54024e-10 -7.73091 5.47488 -0.417314 -1.4142e-09 1.31832e-09 2.5402e-10 -2.90554 0.965183 -0.102902 -1.41421e-09 1.31832e-09 2.54017e-10 -10.2786 0.731801 -0.0259123 -1.41419e-09 1.31832e-09 2.54014e-10 -2.22167 -0.733487 0.20892 -2.03217e-16 0.0 -3.88251e-19 -0.465663 -19.0771 12.2747 -0.0803897 33.8414 1.52562 -16.609 -30.8455 -25.4776 2.03217e-16 0.0 3.88251e-19 -3.13924 -71.4982 2.45326 0.517074 46.1232 -0.666081 0.412927 -1.54504 0.0198756
